<?xml version="1.0" encoding="UTF-8"?>
<svg xmlns="http://www.w3.org/2000/svg" xmlns:xlink="http://www.w3.org/1999/xlink" width="185px" height="21px" viewBox="0 0 181 21" version="1.1">
<g id="surface1">
<path style=" stroke:none;fill-rule:evenodd;fill:rgb(100%,100%,100%);fill-opacity:1;" d="M 116.140625 11.710938 L 122.878906 11.710938 L 122.878906 13.285156 L 116.140625 13.285156 Z M 4.101562 2.171875 L 3.496094 17.957031 L 3.496094 18.230469 C 3.496094 19.570312 3.890625 19.84375 6 19.996094 L 6 20.726562 C 4.460938 20.605469 3.859375 20.574219 3.015625 20.574219 C 2.171875 20.574219 1.566406 20.605469 0 20.726562 L 0 19.996094 C 2.109375 19.84375 2.410156 19.601562 2.472656 17.957031 L 3.105469 3.023438 L 3.105469 2.839844 C 3.105469 1.441406 2.683594 1.136719 0.601562 1.015625 L 0.601562 0.253906 C 1.777344 0.34375 2.230469 0.375 3.074219 0.375 C 4.191406 0.375 4.792969 0.34375 5.941406 0.222656 L 11.546875 15.613281 L 17.246094 0.222656 C 18.601562 0.34375 19.238281 0.375 20.140625 0.375 C 20.894531 0.375 21.378906 0.34375 22.523438 0.253906 L 22.523438 1.015625 C 20.472656 1.136719 20.019531 1.441406 20.019531 2.808594 L 20.019531 3.023438 L 20.351562 17.957031 C 20.382812 19.601562 20.652344 19.84375 22.824219 19.996094 L 22.824219 20.726562 C 20.925781 20.542969 20.203125 20.484375 19.054688 20.484375 C 17.910156 20.484375 17.1875 20.542969 15.285156 20.726562 L 15.285156 19.996094 C 17.335938 19.875 17.789062 19.539062 17.789062 18.109375 L 17.789062 17.957031 L 17.519531 2.199219 L 12.542969 15.765625 L 12.179688 16.769531 L 11.757812 17.898438 L 11.367188 19.050781 L 11.035156 20.054688 L 10.582031 20.054688 L 10.25 19.082031 L 9.828125 17.898438 L 9.40625 16.710938 L 9.046875 15.644531 Z M 26.742188 11.996094 C 27.042969 8.496094 28.1875 6.703125 30.121094 6.703125 C 32.078125 6.703125 33.074219 8.40625 33.253906 11.996094 Z M 30.660156 19.964844 C 27.917969 19.964844 26.710938 17.835938 26.683594 13.089844 L 35.667969 13.089844 C 35.605469 8.40625 33.707031 5.910156 30.148438 5.910156 C 26.53125 5.910156 24.269531 8.863281 24.269531 13.546875 C 24.269531 18.230469 26.53125 20.96875 30.421875 20.96875 C 33.375 20.96875 35.304688 19.113281 35.695312 15.980469 L 34.492188 15.980469 C 34.128906 18.566406 32.800781 19.964844 30.660156 19.964844 Z M 37.460938 7.039062 L 37.460938 6.488281 C 39.179688 6.335938 40.207031 6.15625 41.441406 5.789062 C 41.59375 6.914062 41.652344 7.402344 41.714844 8.316406 L 41.714844 8.648438 C 42.375 6.914062 43.671875 5.910156 45.242188 5.910156 C 46.75 5.910156 47.863281 6.914062 47.863281 8.375 C 47.863281 9.257812 47.351562 9.835938 46.597656 9.835938 C 45.90625 9.835938 45.363281 9.410156 45.363281 8.800781 C 45.363281 8.742188 45.390625 8.617188 45.421875 8.496094 L 45.480469 8.191406 L 45.480469 7.917969 C 45.480469 7.492188 45.121094 7.1875 44.578125 7.1875 C 43.011719 7.1875 42.015625 9.105469 42.015625 12.117188 L 42.015625 18.476562 C 42.015625 19.78125 42.316406 20.027344 44.15625 20.117188 L 44.15625 20.726562 C 42.496094 20.574219 41.863281 20.542969 40.808594 20.542969 C 39.722656 20.542969 39.089844 20.574219 37.433594 20.726562 L 37.433594 20.117188 C 39.269531 20.027344 39.601562 19.78125 39.601562 18.476562 L 39.601562 8.527344 C 39.574219 7.21875 39.421875 7.066406 37.855469 7.039062 Z M 59.398438 5.636719 L 59.398438 10.65625 L 58.734375 10.65625 C 58.191406 8.011719 57.078125 6.734375 55.238281 6.734375 C 52.976562 6.734375 51.648438 9.195312 51.648438 13.546875 C 51.648438 17.804688 52.824219 19.964844 55.148438 19.964844 C 57.015625 19.964844 58.132812 18.625 58.492188 15.949219 L 59.730469 15.949219 C 59.339844 19.203125 57.621094 20.96875 54.90625 20.96875 C 51.40625 20.96875 49.027344 17.988281 49.027344 13.546875 C 49.027344 9.015625 51.4375 5.910156 54.996094 5.910156 C 56.292969 5.910156 57.105469 6.246094 58.070312 7.1875 L 58.886719 5.636719 Z M 64.351562 11.996094 C 64.652344 8.496094 65.796875 6.703125 67.726562 6.703125 C 69.6875 6.703125 70.679688 8.40625 70.863281 11.996094 Z M 68.269531 19.964844 C 65.527344 19.964844 64.320312 17.835938 64.289062 13.089844 L 73.273438 13.089844 C 73.214844 8.40625 71.316406 5.910156 67.757812 5.910156 C 64.140625 5.910156 61.878906 8.863281 61.878906 13.546875 C 61.878906 18.230469 64.140625 20.96875 68.027344 20.96875 C 70.984375 20.96875 72.914062 19.113281 73.304688 15.980469 L 72.097656 15.980469 C 71.738281 18.566406 70.410156 19.964844 68.269531 19.964844 Z M 81.625 20.148438 C 79.453125 20.148438 78.308594 17.867188 78.308594 13.515625 C 78.308594 9.105469 79.363281 6.945312 81.535156 6.945312 C 83.765625 6.945312 84.910156 9.257812 84.910156 13.730469 C 84.910156 17.957031 83.796875 20.148438 81.625 20.148438 Z M 87.292969 17.5625 L 87.292969 0 C 85.785156 0.40625 84.429688 0.648438 82.742188 0.832031 L 82.742188 1.347656 C 84.640625 1.347656 84.878906 1.5625 84.878906 3.144531 L 84.878906 8.46875 C 83.765625 6.640625 82.890625 6.09375 81.261719 6.09375 C 78.035156 6.09375 75.777344 9.167969 75.777344 13.546875 C 75.777344 17.925781 78.066406 21 81.351562 21 C 83.070312 21 84.25 20.207031 85.09375 18.503906 C 85.214844 19.660156 85.214844 19.78125 85.515625 20.9375 C 86.75 20.542969 87.261719 20.421875 89.042969 20.207031 L 89.496094 20.148438 L 89.496094 19.628906 C 87.472656 19.570312 87.292969 19.417969 87.292969 17.5625 Z M 93.109375 11.996094 C 93.410156 8.496094 94.554688 6.703125 96.484375 6.703125 C 98.445312 6.703125 99.441406 8.40625 99.621094 11.996094 Z M 97.027344 19.964844 C 94.285156 19.964844 93.078125 17.835938 93.046875 13.089844 L 102.035156 13.089844 C 101.972656 8.40625 100.074219 5.910156 96.515625 5.910156 C 92.898438 5.910156 90.636719 8.863281 90.636719 13.546875 C 90.636719 18.230469 92.898438 20.96875 96.785156 20.96875 C 99.742188 20.96875 101.671875 19.113281 102.0625 15.980469 L 100.859375 15.980469 C 100.496094 18.566406 99.167969 19.964844 97.027344 19.964844 Z M 104.59375 21 L 104.59375 15.917969 L 105.253906 15.890625 C 105.796875 18.65625 107.066406 19.996094 109.175781 19.996094 C 110.953125 19.996094 112.28125 18.808594 112.28125 17.257812 C 112.28125 16.222656 111.707031 15.523438 110.230469 14.855469 L 109.085938 14.335938 L 107.699219 13.699219 C 105.496094 12.664062 104.804688 11.8125 104.804688 10.046875 C 104.804688 7.644531 106.671875 6.003906 109.328125 6.003906 C 110.503906 6.003906 111.375 6.277344 112.402344 6.976562 L 112.914062 5.730469 L 113.457031 5.730469 L 113.457031 10.445312 L 112.761719 10.445312 C 112.492188 8.011719 111.496094 6.855469 109.597656 6.855469 C 108 6.855469 106.765625 7.949219 106.765625 9.378906 C 106.765625 10.597656 107.214844 10.992188 109.960938 12.207031 L 111.226562 12.757812 C 113.515625 13.757812 114.332031 14.734375 114.332031 16.527344 C 114.332031 19.082031 112.3125 20.910156 109.476562 20.910156 C 108.089844 20.910156 107.003906 20.542969 105.859375 19.628906 L 105.136719 21 Z M 131.097656 10.503906 C 132.695312 10.503906 133.601562 10.777344 134.292969 11.476562 C 134.988281 12.179688 135.378906 13.484375 135.378906 14.945312 C 135.378906 17.988281 133.871094 19.691406 131.1875 19.691406 L 130.101562 19.691406 C 128.503906 19.691406 128.234375 19.449219 128.234375 18.109375 L 128.234375 10.503906 Z M 128.234375 1.289062 L 130.796875 1.289062 C 133.328125 1.289062 134.445312 2.535156 134.445312 5.363281 C 134.445312 6.761719 134.113281 7.765625 133.449219 8.558594 C 132.785156 9.320312 131.972656 9.5625 130.28125 9.5625 L 128.234375 9.5625 Z M 137.128906 5.304688 C 137.128906 3.722656 136.464844 2.320312 135.320312 1.441406 C 134.292969 0.679688 133.117188 0.34375 131.160156 0.34375 L 123.226562 0.34375 L 123.226562 1.105469 C 125.398438 1.226562 125.699219 1.46875 125.699219 3.113281 L 125.699219 17.867188 C 125.699219 19.507812 125.460938 19.722656 123.226562 19.90625 L 123.226562 20.632812 L 130.855469 20.632812 C 133.085938 20.632812 134.292969 20.359375 135.558594 19.570312 C 137.066406 18.597656 138.0625 16.742188 138.0625 14.824219 C 138.0625 13.179688 137.371094 11.691406 136.191406 10.777344 C 135.558594 10.292969 134.894531 10.019531 133.8125 9.804688 C 135.984375 8.984375 137.128906 7.433594 137.128906 5.304688 Z M 142.984375 11.996094 C 143.285156 8.496094 144.433594 6.703125 146.359375 6.703125 C 148.320312 6.703125 149.316406 8.40625 149.496094 11.996094 Z M 146.902344 19.964844 C 144.160156 19.964844 142.953125 17.835938 142.921875 13.089844 L 151.910156 13.089844 C 151.847656 8.40625 149.949219 5.910156 146.390625 5.910156 C 142.773438 5.910156 140.511719 8.863281 140.511719 13.546875 C 140.511719 18.230469 142.773438 20.96875 146.660156 20.96875 C 149.617188 20.96875 151.546875 19.113281 151.9375 15.980469 L 150.730469 15.980469 C 150.371094 18.566406 149.042969 19.964844 146.902344 19.964844 Z M 153.503906 7.160156 L 153.503906 6.640625 C 155.253906 6.398438 156.28125 6.15625 157.484375 5.730469 C 157.636719 6.429688 157.726562 7.21875 157.785156 8.375 C 158.871094 6.734375 160.109375 6.003906 161.855469 6.003906 C 163.664062 6.003906 165.234375 6.945312 165.839844 8.4375 C 166.140625 9.167969 166.289062 10.019531 166.289062 11.175781 L 166.289062 18.476562 C 166.289062 19.78125 166.589844 20.027344 168.429688 20.117188 L 168.429688 20.726562 C 166.832031 20.574219 166.230469 20.542969 165.144531 20.542969 C 164.027344 20.542969 163.425781 20.574219 161.855469 20.726562 L 161.855469 20.117188 C 163.484375 20.054688 163.878906 19.753906 163.878906 18.535156 L 163.878906 11.082031 C 163.878906 8.4375 163.09375 7.371094 161.164062 7.371094 C 159.113281 7.371094 158.027344 8.679688 158.027344 11.175781 L 158.027344 18.535156 C 158.027344 19.753906 158.421875 20.054688 159.988281 20.117188 L 159.988281 20.726562 C 158.421875 20.574219 157.816406 20.542969 156.730469 20.542969 C 155.675781 20.542969 155.042969 20.574219 153.476562 20.726562 L 153.476562 20.117188 C 155.3125 20.027344 155.613281 19.78125 155.613281 18.476562 L 155.613281 8.617188 C 155.585938 7.371094 155.40625 7.1875 153.898438 7.1875 C 153.808594 7.1875 153.65625 7.160156 153.503906 7.160156 Z M 169.601562 20.632812 L 177.773438 7.066406 L 174.0625 7.066406 C 172.105469 7.066406 171.621094 7.492188 170.535156 10.230469 L 169.933594 10.230469 L 170.628906 6.277344 L 181 6.277344 L 172.796875 19.84375 L 176.324219 19.84375 C 178.378906 19.84375 179.21875 19.023438 180.125 16.253906 L 180.761719 16.253906 L 179.976562 20.632812 Z M 169.601562 20.632812 "/>
</g>
</svg>
